<svg xmlns="http://www.w3.org/2000/svg" width="12" height="15" viewBox="0 0 12 15">
  <path d="M725.329,1059.71l-0.659-.75a0.5,0.5,0,0,0-.7-0.05L722,1060.64v-7.14a0.5,0.5,0,0,0-.5-0.5h-1a0.5,0.5,0,0,0-.5.5v7.14l-1.965-1.73a0.5,0.5,0,0,0-.7.05l-0.659.75a0.5,0.5,0,0,0,.046.71l3.954,3.46a0.512,0.512,0,0,0,.659,0l3.953-3.46A0.5,0.5,0,0,0,725.329,1059.71ZM726.5,1066h-11a0.5,0.5,0,0,0-.5.5v1a0.5,0.5,0,0,0,.5.5h11a0.5,0.5,0,0,0,.5-0.5v-1A0.5,0.5,0,0,0,726.5,1066Z" transform="translate(-715 -1053)"/>
</svg>
