<svg xmlns="http://www.w3.org/2000/svg" width="21" height="19" viewBox="0 0 21 19">
  <path d="M792.118,1060.88A2.88,2.88,0,0,0,790,1060h-1v-3a3.606,3.606,0,0,0-.313-1.38,3.567,3.567,0,0,0-.75-1.18l-2.375-2.38a3.686,3.686,0,0,0-1.188-.75A3.564,3.564,0,0,0,783,1051h-5.5a1.418,1.418,0,0,0-1.063.44,1.436,1.436,0,0,0-.438,1.06v7.5h-1a3.01,3.01,0,0,0-3,3v4.5a0.472,0.472,0,0,0,.149.35,0.478,0.478,0,0,0,.351.15H776v0.5a1.5,1.5,0,0,0,1.5,1.5h10a1.416,1.416,0,0,0,1.062-.44,1.432,1.432,0,0,0,.438-1.06V1068h3.5a0.48,0.48,0,0,0,.352-0.15,0.471,0.471,0,0,0,.148-0.35V1063A2.9,2.9,0,0,0,792.118,1060.88ZM787,1068h-9v-2h9v2Zm0-6h-9v-9h5v2.5a1.432,1.432,0,0,0,.438,1.06,1.456,1.456,0,0,0,1.063.44H787v5Zm2.851,1.85a0.487,0.487,0,0,1-.7,0,0.488,0.488,0,0,1,0-.7,0.487,0.487,0,0,1,.7,0A0.486,0.486,0,0,1,789.852,1063.85Z" transform="translate(-772 -1051)"/>
</svg>
